<?xml version="1.0" standalone="no"?>
<svg xmlns:xlink="http://www.w3.org/1999/xlink" id="wave" style="transform:rotate(180deg); transition: 0.3s" viewBox="0 0 1440 100" preserveAspectRatio="none" version="1.1" xmlns="http://www.w3.org/2000/svg"><path style="transform:translate(0, 0px); opacity:1" fill="#2a2d30" d="M0,0L10,6.7C20,13,40,27,60,26.7C80,27,100,13,120,8.3C140,3,160,7,180,13.3C200,20,220,30,240,28.3C260,27,280,13,300,18.3C320,23,340,47,360,53.3C380,60,400,50,420,48.3C440,47,460,53,480,46.7C500,40,520,20,540,25C560,30,580,60,600,68.3C620,77,640,63,660,60C680,57,700,63,720,63.3C740,63,760,57,780,55C800,53,820,57,840,56.7C860,57,880,53,900,51.7C920,50,940,50,960,56.7C980,63,1000,77,1020,68.3C1040,60,1060,30,1080,18.3C1100,7,1120,13,1140,20C1160,27,1180,33,1200,30C1220,27,1240,13,1260,13.3C1280,13,1300,27,1320,26.7C1340,27,1360,13,1380,6.7C1400,0,1420,0,1430,0L1440,0L1440,100L1430,100C1420,100,1400,100,1380,100C1360,100,1340,100,1320,100C1300,100,1280,100,1260,100C1240,100,1220,100,1200,100C1180,100,1160,100,1140,100C1120,100,1100,100,1080,100C1060,100,1040,100,1020,100C1000,100,980,100,960,100C940,100,920,100,900,100C880,100,860,100,840,100C820,100,800,100,780,100C760,100,740,100,720,100C700,100,680,100,660,100C640,100,620,100,600,100C580,100,560,100,540,100C520,100,500,100,480,100C460,100,440,100,420,100C400,100,380,100,360,100C340,100,320,100,300,100C280,100,260,100,240,100C220,100,200,100,180,100C160,100,140,100,120,100C100,100,80,100,60,100C40,100,20,100,10,100L0,100Z"/></svg>