<svg xmlns="http://www.w3.org/2000/svg" viewBox="0 0 1352.49 1090.14"><defs><style>.cls-1{isolation:isolate;}.cls-2{fill:#fff;}.cls-4{fill:#66586b;}.cls-10,.cls-11,.cls-14,.cls-15,.cls-16,.cls-18,.cls-4,.cls-6,.cls-8{mix-blend-mode:hard-light;}.cls-5{fill:#d8e8e8;}.cls-6{fill:#6a7475;}.cls-7{fill:#f7b66a;}.cls-8{fill:#d6b396;}.cls-9{fill:#fbdeb0;}.cls-10{fill:#787067;}.cls-11{fill:#b5c2c2;}.cls-12{fill:#5396b8;}.cls-13{fill:#406d96;}.cls-14{opacity:0.35;}.cls-15{fill:#6c6d73;}.cls-16{fill:#445159;}.cls-17{fill:#2f3a56;}.cls-18{fill:#52595e;}.cls-19{fill:#151a26;}.cls-20{fill:#a8d0da;}</style></defs><g class="cls-1"><g id="Layer_2" data-name="Layer 2"><g id="Layer_1-2" data-name="Layer 1"><path class="cls-2" d="M1305.65,433c-.2-11.39-.16-23.15,4.1-33.73,5-12.35,10.06-21.59,9.33-35.67v-.33c-4.27-64.58-13.79-170.18-13.86-170.74-2.37-20.24-11.72-39.46-26.89-53.17a83,83,0,0,0-26-15.87c-7.94-3-16.88-3.21-21.71-11.22-5.16-8.58-3.17-17.16-12.42-24.8-13.27-11-29.72-8.92-48.76-6.57-5.19.64-11.08,1.37-17.58,2S1069,90.41,1016.67,94.6c-11.9,1-19,6.75-23,11.46-5.71,6.86-3.32,15.53-11.09,20.81-7,4.75-13.39,2.77-19.6-1.06-16.9-10.41-31.61-31.21-45.57-45.38C877.21,39.54,857,19,832.06,8.37c-26-11.09-51.78-9.14-98.66-5.59-5.15.39-10.59.81-16.29,1.22l-.77,0c-118.65,8.23-178.2,12.36-209.9,15.24-32.4,2.94-39,4.84-49.58,9.53l-2.41,1.05-.23.1c-31.82,13.91-42.36,28.67-70.52,68.1-7.09,9.92-14.18,19.82-21.38,29.65-6.19,8.47-14.24,25.57-24.68,29.15-12.66,4.33-12.26-5-13.6-14.53-1.52-10.89-4-20.3-13-27.55-5-4-13.74-8.61-26.79-7.82l-.45,0c-102.87,7.14-152.89,10.75-178.4,12.85-12.72,1.05-19.92,1.77-24.08,2.41-10.07,1.55-15.85,6-19.15,10.91-15.47,18.42,2,43.42-11.62,61.52-6.83,9.11-19.4,13.08-27.57,21a76,76,0,0,0-19.71,33C2.15,252.34-.55,262.63.1,271.89c.15,15.66,2.05,124.29,3.6,171a59.68,59.68,0,0,0,19,41.08c3.86,3.62,4.93,20.65,5.44,28.83.3,4.65.6,9.45,1.15,13.94C35.49,577.39,38,628.59,40.8,679.54,44,737.66,46.46,795.82,48.58,854q1.2,33,2.19,66.06c.84,29.49-9.59,58-8.88,87.33.69,28.68,13.5,52.45,37.07,68.75,13.59,9.76,33.36,15,53,13.88,275.15-15,531.68-30,732.27-42.11,249.8-15.12,412.82-25.81,416.81-26.41a82.74,82.74,0,0,0,19.41-5.65,60.18,60.18,0,0,0,8.72-4.28,86.78,86.78,0,0,0,36.42-39.64,89.69,89.69,0,0,0,5.84-17c1-4.19,1.5-27.84.67-35.27-.13-1.17-.26-2.37-.38-3.58-1.22-11.7-5-21.81-11.16-30.17a40.65,40.65,0,0,1-7.84-20.62c-.71-8-1.43-18.43-2.23-30.15-1-14.57-2.25-32.7-4.07-55.92-1.92-24.57-3.67-46.76-5.27-67-10.73-135.86-14.34-181.63-15.19-259.27C1305.85,445.06,1305.74,438.48,1305.65,433Zm-8.47,558.48Z"/><rect class="cls-3" style="fill:var(--ghost-accent-color)" x="74.66" y="421.89" width="1206.47" height="515.71" transform="translate(-39.84 42.21) rotate(-3.46)"/><path class="cls-4" d="M87.42,521.87,112.3,932.64a39.61,39.61,0,0,0,41.93,37.14L1295.6,900.67l-31.17-514.76L148,453.51A64.58,64.58,0,0,0,87.42,521.87Zm69.11,379.28L138.09,596.66c-1.71-28.32,19.41-52.56,47-53.95L431.56,530a383.4,383.4,0,0,0,43.19,394.16L200.08,940.75C177.44,942.12,157.94,924.39,156.53,901.15Zm1019.76-19.51L1104.08,886c-12.91.78-21.79-13.08-16-24.93a384.14,384.14,0,0,0-3.55-342.23c-5.13-10,1.46-22.06,12.45-22.62l52-3c32.09-1.63,59.39,23.95,61.39,56.86L1226.93,823C1228.79,853.56,1206.12,879.83,1176.29,881.64Z"/><path class="cls-5" d="M1269.49,981,127.85,1050.14a46.8,46.8,0,0,1-49.54-43.88l-.79-13.08a18.72,18.72,0,0,1,17.55-19.82l1197.69-72.52a18.73,18.73,0,0,1,19.82,17.56l.79,13.08A46.81,46.81,0,0,1,1269.49,981Z"/><path class="cls-6" d="M1013.43,996.52c6.33-9.34,44.27-21.27,71.34-85.56L705,936.43c0,.37.08.74.1,1.11q.36,6,.71,12l.06.62,3.92,64.74Z"/><path class="cls-5" d="M1261.59,386.08,63.9,458.6A18.72,18.72,0,0,1,44.09,441L33.85,272a46.79,46.79,0,0,1,43.88-49.54l1141.64-69.13a46.8,46.8,0,0,1,49.54,43.89l10.24,169.09A18.73,18.73,0,0,1,1261.59,386.08Z"/><circle class="cls-7" cx="198.78" cy="332.28" r="37.44" transform="translate(-176.74 237.88) rotate(-45)"/><circle class="cls-8" cx="193.77" cy="326.96" r="19.65" transform="translate(-135.66 516.51) rotate(-89.26)"/><path class="cls-9" d="M1199.74,309.18l-163.49,9.9a2.79,2.79,0,0,1-3-2.63L1028,229.57a2.81,2.81,0,0,1,2.63-3l163.49-9.89a2.79,2.79,0,0,1,3,2.63l5.26,86.88A2.79,2.79,0,0,1,1199.74,309.18Z"/><path class="cls-10" d="M1194.14,216.7l-163.49,9.89a2.81,2.81,0,0,0-2.63,3l5.26,86.88a2.79,2.79,0,0,0,3,2.63l163.49-9.9a2.79,2.79,0,0,0,2.63-3l-5.26-86.88A2.79,2.79,0,0,0,1194.14,216.7ZM1157.49,284l-98.77,6a11.14,11.14,0,0,1-11.79-10.45l-1.78-29.41a10,10,0,0,1,9.35-10.56l103.2-6.25a9.69,9.69,0,0,1,10.25,9.08l1.69,27.9A13,13,0,0,1,1157.49,284Z"/><path class="cls-5" d="M782.79,33.44,496.66,50.77a89.83,89.83,0,0,0-69.07,39.46L349.59,206l15.14,234.43,597-36.14-14.19-234.5L856.12,64.28A89.85,89.85,0,0,0,782.79,33.44Z"/><path class="cls-11" d="M769,51.16,508.77,66.91c-25.38,1.54-48.69,13.15-63.08,31.41L401.5,172a19.83,19.83,0,0,0,18.07,30l456.71-24.41a18.79,18.79,0,0,0,14.07-30L835.77,74.3C819.29,57.91,794.36,49.62,769,51.16Z"/><rect class="cls-5" x="85.73" y="145.37" width="206.84" height="40.25" rx="2.81" transform="translate(-9.66 11.73) rotate(-3.46)"/><path class="cls-6" d="M288.36,139.33l-48.63,2.94c1.05,13.4,1.59,26.83,1.34,40.24l49.73-3a2.81,2.81,0,0,0,2.63-3L291.34,142A2.81,2.81,0,0,0,288.36,139.33Z"/><path class="cls-5" d="M1198.82,154.53l-180.31,10.91-2.27-37.37a2.82,2.82,0,0,1,2.64-3l174.7-10.58a2.81,2.81,0,0,1,3,2.64Z"/><path class="cls-6" d="M1193.58,114.52,1153.06,117l2.64,43.66,43.12-6.11-2.27-37.37A2.81,2.81,0,0,0,1193.58,114.52Z"/><circle class="cls-12" cx="676.01" cy="641.42" r="374.85" transform="translate(-255.55 665.88) rotate(-45)"/><circle class="cls-13" cx="676.01" cy="641.42" r="332.16" transform="translate(-255.55 665.88) rotate(-45)"/><path class="cls-14" d="M1008,630.37C1014,809.6,876.18,962.06,696.09,973a335.55,335.55,0,0,1-47.93-.52c-144-21.4-258.35-141-267.49-292.05C370.17,507,502.3,358,675.8,347.47,845.28,337.21,991.52,463,1008,630.37Z"/><path class="cls-15" d="M913.34,409q-18.84-.72-38.05.44C663.22,422.31,501.72,604.63,514.56,816.69A384.05,384.05,0,0,0,545.74,947c-112-47.83-193.42-155.71-201.28-285.54C333.38,478.38,472.83,321,655.94,309.87A331.33,331.33,0,0,1,913.34,409Z"/><path class="cls-16" d="M1007.56,621.34q.29,4.53.42,9C991.52,463,845.28,337.21,675.8,347.47,502.3,358,370.17,507,380.67,680.4c9.14,151,123.48,270.65,267.49,292.05-161.9-13.42-293.59-144.06-303.7-311C333.38,478.38,472.83,321,655.94,309.87S996.48,438.23,1007.56,621.34Z"/><circle class="cls-17" cx="676.01" cy="641.42" r="239.49"/><ellipse class="cls-18" cx="676.01" cy="641.42" rx="145.54" ry="146.01" transform="translate(1.12 1284.01) rotate(-87.09)"/><circle class="cls-19" cx="676.01" cy="641.42" r="115.59" transform="translate(-255.55 665.88) rotate(-45)"/><rect class="cls-20" x="516.88" y="86.1" width="249.9" height="58.96" rx="2.81" transform="translate(-5.81 39) rotate(-3.46)"/><rect class="cls-20" x="115.93" y="185.58" width="149.75" height="29.95" transform="translate(-11.77 11.9) rotate(-3.46)"/><path class="cls-15" d="M897.75,550.73A265.54,265.54,0,0,0,856,550c-146.41,8.86-257.89,135.34-249,282.49a270.36,270.36,0,0,0,5.4,39.91C516.4,846,443.32,760.88,437,655.89c-8-132,92.55-245.53,224.58-253.53C766.63,396,860,458.41,897.75,550.73Z"/><path class="cls-19" d="M170.33,364.4a43.64,43.64,0,0,0,62.2-2.21c16.33-17.73,14-46.89-4.87-62.51-18.3-15.2-45.18-12.65-60.06,5C153.15,321.73,153,347.67,170.33,364.4ZM165.65,331c1.6-41.57,62.49-40.52,63.4-.58C229.72,371.75,167.42,375.26,165.65,331Z"/><path class="cls-19" d="M1211.67,305c-4.85-65-4.44-61-6.51-84-1.47-16.17-4.4-9.37-110-3.59-67.69,3.7-72.12,1.52-72.72,11.41,0,.62.08,2.81.08,2.72,5.24,109.77-10,96.81,48.17,93.83C1202.45,318.67,1213,322.42,1211.67,305Zm-168,2.78c-4.55-4.47-4-9.31-6.43-34.41-1.22-12.9-5.09-40.05,3.06-41.73,4.09-.83,87.69-5.6,87.83-5.61,69-4,60.78-8.5,62.76,36.53,1.94,44.08,8.74,37.28-49.83,41.25C1041.34,310.57,1047.73,311.73,1043.7,307.77Z"/><path class="cls-19" d="M1295.71,364.77c-4.27-64.64-13.73-169.39-13.74-169.49-3.89-32.3-29-54.64-63.16-54.3l-3.27.17c-7.55.42-5.67-8.87-6.31-18.42C1207.35,95,1194,102.38,1154,106.14c-6.51.61-82.84,7.56-135.46,11.78-19.45,1.56,0,34.1-13.06,34.82-33.72,1.86-44,4.89-55.52-6.5C815.35,13.35,842.68,18.31,718.73,27.34c-252,17.49-237.2,16.45-255.13,24.06-37.09,16.23-36.83,31.27-110.13,127.24-11.08,14.51-21.53,13.43-41.15,15.21-29.29,2.67-30.81,2.7-31-.19-.55-9,9.65-.7,17.5-8a12.15,12.15,0,0,0,3.89-10.07c-2.27-35.83-2.27-34.9-2.25-34.81-.68-5.94-5.16-11.13-15.09-10.44C63.91,145.73,83.43,145,81.1,147.12c-3.76,3.44-3.17,7.25-3,11,2,34.09,1.54,32.6,2.75,35.08,5.57,11.48,23.23.4,23.71,8.31l.4,6.67c.4,6.67-18.39,3.26-38.76,8.05-11.37,2.68-22.78,12.64-22,12.07-23.36,17.08-20.87,46.64-20.77,42.3,0,2.06,1.85,118.9,3.6,171.5a36.27,36.27,0,0,0,11.6,24.8c13.62,12.77,11.69,39.74,13.8,57C66,633.38,75.86,954.89,74.9,959.47,73,968.36,45.65,1024.84,92.46,1057c8.08,5.87,22,10.51,38.21,9.63,631.61-34.33,1141.52-67.49,1146.83-68.3a63.54,63.54,0,0,0,19.68-6.9c31.87-17.57,33-52.48,32.13-46.63,1.33-9.15.07-17.14-.89-26.3s-4.1-17.26-11.15-23.51c-8.72-7.73-6.92-21-14.19-113.94-14.95-191-19.55-237.8-20.54-327.8-.63-57.44-2.48-43,10.19-71.32A36,36,0,0,0,1295.71,364.77ZM697.84,1001.9c-292.78,19.6-483.73-297.53-338.62-545.47C522.77,177,945.8,235.89,1025.49,549.61,1080.37,765.44,926.57,986.08,697.84,1001.9ZM134.35,961.38a29.49,29.49,0,0,1-31.07-26.87c-6.35-72.78-26.22-306.58-27.39-379.77-1.45-81.16-1.8-81.2,91-87.38,67.3-4.48,101.89-5.87,157.87-7.65a8.55,8.55,0,0,1,7.91,12.37c-79,159.09-37.78,347.13,84.63,456.05a8.45,8.45,0,0,1-4.92,14.74C305.68,951.65,264.36,954,134.35,961.38Zm1126-448.32c3.2,36.31,4.44,65.69,7.1,125.88,10.25,232,11.82,219.28.42,236.32-8.09,12.1-13.65,14.22-27.81,15.37-71.37,5.78-183.16,15.13-254.29,15.72A10.39,10.39,0,0,1,977.87,889c92-103,126.21-295.77,27.39-452.17a11.12,11.12,0,0,1,8.55-17.06c45.89-3.38,22.3-1.69,107.22-7.66C1268.86,401.75,1249.79,394,1260.3,513.06Zm-40.08-347.48c22.75-.23,35.2,16.27,35.51,32.8,0,.1,2.78,82.48,4.26,117,1.85,42,14.24,53.34-88,58.89-.11,0-172.2,9.52-177.34,8.69-23-3.7-23.1-27.72-25.05-46.2-14.44-137.2-17-153.91,10-155.28C985.06,181.16,1206,166.48,1220.22,165.58Zm-191.11-33.87c160.62-11.36,157.26-13.57,157.64-5.43.36,7.82,2.5,16.32-4.67,16.72l-151.61,8.36c-6.67.37-6-7-6.52-13.67A5.56,5.56,0,0,1,1029.11,131.71ZM393.39,158.8c75-124.13,42.05-96.86,326.55-111.58,118.74-5.72,100.8-16.07,180.42,90,44.29,59,42.78,44.12,45.31,201,.1,5.76.6,16.55-8.28,15.18-10.49-1.6-108.92-107.51-284.63-95.91C545.07,264.8,447.63,316,381.55,396.5a5.3,5.3,0,0,1-9.34-2.6c-3.54-20.81-10.84-94-12.55-146.51C358.71,213.61,358.73,215.8,393.39,158.8ZM125.55,206.87c-.23-3.77-1.14-7.92,2.81-8.16,135.27-8.19,127.54-8.88,128.07-5.07,1.48,10.52,10.36,4.33-126.26,16.25C127.16,210.07,125.68,209,125.55,206.87Zm156.59-64.28h0Zm.28,6.87c1,15.7,2.63,21-2.8,21.37C95.4,182.55,93.94,187.68,93.44,180.17c-1.13-17.07-2.62-21.93,2.7-22.29C291.15,144.72,282.05,143.49,282.42,149.46Zm-235.3,103c11.75-24.85,26.21-21.75,63.5-23.21,117.68-7.63,168.2-9.49,164.8-9.39,27.14-.82,65.89-8.93,69.42,28.52,1.48,15.77,3,36.66,4.27,62.86,4.14,101.06,4.27,106.43-11.62,112.75-12.25,4.86-243.6,18.37-256,17.9-26-1-21.06-13.51-36.64-164.55C43.93,268.26,43,261.66,47.12,252.41Zm96.59,780c-12.56.84-39.8,6.44-50.51-20.09-4.73-12.38-1.53-21.46,5.47-26.06,9-5.9,14.56-4.57,191.44-15.42C508.55,960.18,439.7,960,521.3,996.41a6,6,0,0,1-2.08,11.41C357.34,1018.09,257.84,1024.81,143.71,1032.42Zm1147.1-108.54c12.92,16.52-2,37.62-22.44,39L874.31,986a4.16,4.16,0,0,1-2.31-7.76c74-42.57,1.43-45.64,376.68-61.19C1262.7,916.5,1281.69,912.24,1290.81,923.88Z"/><path class="cls-19" d="M1014.74,687.72C1053.05,416.51,772.29,210,524.29,329.87c-170.14,82-244.5,289.63-158.92,462.82a344,344,0,0,0,331.36,191C862.7,972.47,992.52,845.65,1014.74,687.72Zm-55,117.95C880.56,940.44,711.17,999.7,569,949.35c-118.25-41.7-202.77-155.66-210.61-288.7-12.68-228,209.2-392.6,421.75-321.09C973.14,404.26,1061.51,632.6,959.76,805.67Z"/><path class="cls-19" d="M902.28,531.23c-96.62-207.74-396.68-190-470.2,26C366.79,749,543,938.1,739.62,883.66,887,842.94,969.58,676.38,902.28,531.23Zm1.06,141.28C889.86,783.39,797.86,863.84,689.78,868.84,582.41,873.68,486.46,801.6,461,697.92,427.44,562.52,524.11,430.44,662.61,420,804.26,409.28,920.65,529.84,903.34,672.51Z"/><path class="cls-19" d="M513.56,152.77c3.08,7.76-14.12,6.32,252.53-5.86a12.16,12.16,0,0,0,11.12-9.3c1.19-5-2.16-32.18-2.77-37.29-3.63-31-.22-29.33-27.31-27.54C501.91,90,515.68,85.69,511.56,91.13c-2.62,3.39-1.94,2.61.34,39.56C513.18,150.22,512.62,150.39,513.56,152.77ZM709.71,88.46c43.78-2.23,48-6.56,48.07,12.87.05,20.62,1.13,19.37.27,22.51-2,7.44,3.46,4.86-181.25,18.68-59.41,4.45-52.23,10.63-54.74-31.64-.72-12,5.57-10.09,35.36-12.41C647.1,91.49,672.43,90.37,709.71,88.46Z"/><circle class="cls-5" cx="553.88" cy="539.96" r="32.32" transform="translate(-180.93 781.61) rotate(-62.47)"/><path class="cls-5" d="M620.34,575.17c8.88,14.08-12.41,27.53-21.31,13.43S611.45,561.06,620.34,575.17Z"/></g></g></g></svg>