<?xml version="1.0" standalone="no"?>
<svg xmlns:xlink="http://www.w3.org/1999/xlink" id="wave" style="transform:rotate(180deg); transition: 0.3s" viewBox="0 0 1440 100" version="1.1" xmlns="http://www.w3.org/2000/svg"><defs></defs><path style="transform:translate(0, 0px); opacity:1" fill="#F8FAFC" fill-opacity="1" d="M0,0L48,6.7C96,13,192,27,288,26.7C384,27,480,13,576,8.3C672,3,768,7,864,13.3C960,20,1056,30,1152,28.3C1248,27,1344,13,1440,18.3C1536,23,1632,47,1728,53.3C1824,60,1920,50,2016,48.3C2112,47,2208,53,2304,46.7C2400,40,2496,20,2592,25C2688,30,2784,60,2880,68.3C2976,77,3072,63,3168,60C3264,57,3360,63,3456,63.3C3552,63,3648,57,3744,55C3840,53,3936,57,4032,56.7C4128,57,4224,53,4320,51.7C4416,50,4512,50,4608,56.7C4704,63,4800,77,4896,68.3C4992,60,5088,30,5184,18.3C5280,7,5376,13,5472,20C5568,27,5664,33,5760,30C5856,27,5952,13,6048,13.3C6144,13,6240,27,6336,26.7C6432,27,6528,13,6624,6.7C6720,0,6816,0,6864,0L6912,0L6912,100L6864,100C6816,100,6720,100,6624,100C6528,100,6432,100,6336,100C6240,100,6144,100,6048,100C5952,100,5856,100,5760,100C5664,100,5568,100,5472,100C5376,100,5280,100,5184,100C5088,100,4992,100,4896,100C4800,100,4704,100,4608,100C4512,100,4416,100,4320,100C4224,100,4128,100,4032,100C3936,100,3840,100,3744,100C3648,100,3552,100,3456,100C3360,100,3264,100,3168,100C3072,100,2976,100,2880,100C2784,100,2688,100,2592,100C2496,100,2400,100,2304,100C2208,100,2112,100,2016,100C1920,100,1824,100,1728,100C1632,100,1536,100,1440,100C1344,100,1248,100,1152,100C1056,100,960,100,864,100C768,100,672,100,576,100C480,100,384,100,288,100C192,100,96,100,48,100L0,100Z"/></svg>